<svg width="25" height="26" viewBox="0 0 25 26" fill="none" xmlns="http://www.w3.org/2000/svg">
<path d="M17.7172 22.8539L7.30054 22.8638C5.00888 22.8659 3.13231 20.9835 3.12971 18.6802L3.11981 8.21055C3.11773 5.90724 4.99065 4.02114 7.28231 4.01852L17.699 4.00858C19.9906 4.00648 21.8672 5.88892 21.8698 8.19223L21.8797 18.6618C21.8823 20.9657 20.0089 22.8518 17.7172 22.8539Z" fill="url(#paint0_radial_9_81)"/>
<path d="M17.7172 22.8539L7.30054 22.8638C5.00888 22.8659 3.13231 20.9835 3.12971 18.6802L3.11981 8.21055C3.11773 5.90724 4.99065 4.02114 7.28231 4.01852L17.699 4.00858C19.9906 4.00648 21.8672 5.88892 21.8698 8.19223L21.8797 18.6618C21.8823 20.9657 20.0089 22.8518 17.7172 22.8539Z" fill="url(#paint1_radial_9_81)"/>
<path d="M12.5 17.1008C10.4901 17.1008 8.85419 15.4571 8.85419 13.4365C8.85419 11.4158 10.4901 9.77209 12.5 9.77209C14.5099 9.77209 16.1459 11.4158 16.1459 13.4365C16.1459 15.4571 14.5099 17.1008 12.5 17.1008ZM12.5 10.8191C11.0641 10.8191 9.89585 11.9932 9.89585 13.4365C9.89585 14.8797 11.0641 16.0539 12.5 16.0539C13.936 16.0539 15.1042 14.8797 15.1042 13.4365C15.1042 11.9932 13.936 10.8191 12.5 10.8191Z" fill="white"/>
<path d="M16.4062 10.2956C16.8377 10.2956 17.1875 9.94401 17.1875 9.51035C17.1875 9.07668 16.8377 8.72513 16.4062 8.72513C15.9748 8.72513 15.625 9.07668 15.625 9.51035C15.625 9.94401 15.9748 10.2956 16.4062 10.2956Z" fill="white"/>
<path d="M15.625 20.2417H9.37502C7.36512 20.2417 5.72919 18.598 5.72919 16.5774V10.2956C5.72919 8.27495 7.36512 6.63123 9.37502 6.63123H15.625C17.6349 6.63123 19.2709 8.27495 19.2709 10.2956V16.5774C19.2709 18.598 17.6349 20.2417 15.625 20.2417ZM9.37502 7.67819C7.93908 7.67819 6.77085 8.85235 6.77085 10.2956V16.5774C6.77085 18.0206 7.93908 19.1948 9.37502 19.1948H15.625C17.061 19.1948 18.2292 18.0206 18.2292 16.5774V10.2956C18.2292 8.85235 17.061 7.67819 15.625 7.67819H9.37502Z" fill="white"/>
<defs>
<radialGradient id="paint0_radial_9_81" cx="0" cy="0" r="1" gradientUnits="userSpaceOnUse" gradientTransform="translate(10.0938 22.8774) scale(23.3849 23.5037)">
<stop stop-color="#FFDD55"/>
<stop offset="0.328" stop-color="#FF543F"/>
<stop offset="0.348" stop-color="#FC5245"/>
<stop offset="0.504" stop-color="#E64771"/>
<stop offset="0.643" stop-color="#D53E91"/>
<stop offset="0.761" stop-color="#CC39A4"/>
<stop offset="0.841" stop-color="#C837AB"/>
</radialGradient>
<radialGradient id="paint1_radial_9_81" cx="0" cy="0" r="1" gradientUnits="userSpaceOnUse" gradientTransform="translate(6.13856 3.77317) scale(15.5276 10.3986)">
<stop stop-color="#4168C9"/>
<stop offset="0.999" stop-color="#4168C9" stop-opacity="0"/>
</radialGradient>
</defs>
</svg>
