<svg width="100" height="100" viewBox="0 0 100 100" fill="none" xmlns="http://www.w3.org/2000/svg">
<path d="M83.0563 54.075C79.8521 54.0917 77.0771 54.8604 74.7521 56.0083C73.9021 54.3104 73.0396 52.8167 72.8958 51.7063C72.7271 50.4104 72.5312 49.6354 72.7354 48.0917C72.9396 46.5479 73.8333 44.3604 73.8208 44.1958C73.8083 44.0313 73.6208 43.2458 71.7729 43.2313C69.925 43.2188 68.3438 43.5875 68.1583 44.075C67.9729 44.5625 67.6167 45.6604 67.3958 46.8063C67.0729 48.4813 63.7063 54.4583 61.7958 57.5833C61.1708 56.3625 60.6396 55.2875 60.5292 54.4375C60.3604 53.1417 60.1646 52.3667 60.3688 50.8229C60.5729 49.2792 61.4667 47.0917 61.4542 46.9271C61.4417 46.7625 61.2542 45.9771 59.4062 45.9625C57.5583 45.95 55.9771 46.3188 55.7917 46.8063C55.6063 47.2938 55.4062 48.4333 55.0292 49.5375C54.65 50.6396 50.1771 60.6083 49.0042 63.1938C48.4062 64.5104 47.8875 65.5688 47.5208 66.2896L47.5188 66.2854C47.5188 66.2854 47.4958 66.3333 47.4583 66.4146C47.1438 67.0292 46.9583 67.3688 46.9583 67.3688C46.9583 67.3688 46.9604 67.3729 46.9646 67.3813C46.7146 67.8333 46.4479 68.2521 46.3167 68.2521C46.225 68.2521 46.0396 67.05 46.3563 65.4C47.0229 61.9417 48.6208 56.55 48.6063 56.3625C48.5979 56.2667 48.9042 55.3271 47.5625 54.8354C46.2583 54.3583 45.7938 55.1542 45.675 55.1563C45.5604 55.1583 45.475 55.4375 45.475 55.4375C45.475 55.4375 46.9271 49.3729 42.7042 49.3729C40.0625 49.3729 36.4042 52.2625 34.6021 54.8813C33.4646 55.5021 31.0292 56.8313 28.4479 58.25C27.4563 58.7958 26.4438 59.3521 25.4833 59.8813C25.4188 59.8083 25.3521 59.7375 25.2854 59.6646C20.1625 54.2 10.6958 50.3354 11.0958 42.9875C11.2417 40.3167 12.1708 33.2833 29.2896 24.7542C43.3125 17.7667 54.5396 19.6896 56.4792 23.95C59.25 30.0396 50.4792 41.3542 35.9167 42.9875C30.3688 43.6104 27.4458 41.4583 26.7188 40.6583C25.9542 39.8146 25.8396 39.7771 25.5542 39.9354C25.0896 40.1938 25.3833 40.9375 25.5542 41.3813C25.9896 42.5125 27.7729 44.5188 30.8146 45.5188C33.4917 46.3979 40.0063 46.8792 47.8833 43.8313C56.7083 40.4188 63.5979 30.9229 61.5729 22.9875C59.5146 14.9167 46.1313 12.2625 33.4646 16.7625C25.9167 19.4417 17.7563 23.6458 11.8875 29.1333C4.91042 35.6583 3.79792 41.3396 4.25625 43.7125C5.88542 52.1458 17.5083 57.6375 22.1625 61.7063C21.9333 61.8333 21.7167 61.9521 21.5208 62.0604C19.1875 63.2146 10.3271 67.8521 8.11042 72.75C5.59584 78.3063 8.51042 82.2938 10.4396 82.8313C16.4167 84.4938 22.55 81.5021 25.8479 76.5854C29.1438 71.6708 28.7417 65.2688 27.2292 62.3479C27.2104 62.3125 27.1896 62.2771 27.1708 62.2396C27.7729 61.8833 28.3875 61.5208 28.9958 61.1625C30.1833 60.4646 31.35 59.8146 32.3604 59.2646C31.7938 60.8146 31.3792 62.675 31.1646 65.3604C30.9104 68.5146 32.2042 72.5917 33.8958 74.1958C34.6417 74.9021 35.5375 74.9188 36.1042 74.9188C38.0729 74.9188 38.9708 73.2813 39.9604 71.3438C41.1729 68.9688 42.25 66.2021 42.25 66.2021C42.25 66.2021 40.9 73.6729 44.5792 73.6729C45.9208 73.6729 47.2688 71.9333 47.8708 71.0479C47.8729 71.0583 47.8729 71.0625 47.8729 71.0625C47.8729 71.0625 47.9083 71.0042 47.9771 70.8896C48.1167 70.6771 48.1958 70.5417 48.1958 70.5417C48.1958 70.5417 48.1979 70.5271 48.2021 70.5021C48.7417 69.5667 49.9375 67.4333 51.7292 63.9146C54.0458 59.3688 56.2667 53.6729 56.2667 53.6729C56.2667 53.6729 56.4729 55.0646 57.15 57.3688C57.5479 58.7229 58.3938 60.2208 59.0625 61.6583C58.525 62.4042 58.1958 62.8313 58.1958 62.8313C58.1958 62.8313 58.1979 62.8396 58.2042 62.8542C57.775 63.425 57.2938 64.0396 56.7896 64.6396C54.9604 66.8167 52.7833 69.3042 52.4917 70.0208C52.1479 70.8667 52.2292 71.4875 52.8938 71.9896C53.3792 72.3542 54.2417 72.4125 55.1438 72.3521C56.7875 72.2417 57.9417 71.8333 58.5125 71.5854C59.4021 71.2708 60.4375 70.7771 61.4083 70.0625C63.2021 68.7438 64.2833 66.8583 64.1792 64.3583C64.1208 62.9813 63.6833 61.6167 63.1271 60.3292C63.2896 60.0958 63.4521 59.8583 63.6167 59.6208C66.4438 55.4875 68.6375 50.9458 68.6375 50.9458C68.6375 50.9458 68.8438 52.3375 69.5208 54.6417C69.8625 55.8063 70.5396 57.0792 71.1479 58.325C68.4896 60.4854 66.8417 62.9958 66.2688 64.6417C65.2104 67.6875 66.0396 69.0667 67.5938 69.3813C68.2979 69.5229 69.2937 69.2 70.0417 68.8833C70.9729 68.575 72.0917 68.0604 73.1375 67.2917C74.9312 65.9729 76.6562 64.1271 76.5521 61.6292C76.5042 60.4917 76.1958 59.3625 75.7771 58.2792C78.0312 57.3396 80.9479 56.8188 84.6646 57.2521C92.6375 58.1833 94.2 63.1604 93.9021 65.2438C93.6021 67.3271 91.9313 68.4729 91.3708 68.8188C90.8125 69.1646 90.6417 69.2854 90.6875 69.5417C90.7562 69.9146 91.0146 69.9021 91.4917 69.8208C92.1479 69.7104 95.6771 68.1271 95.8292 64.2813C96.0188 59.3938 91.3417 54.0313 83.0563 54.075ZM21.6042 74.7917C18.9625 77.6729 15.275 78.7604 13.6917 77.8438C11.9833 76.8542 12.6604 72.6125 15.9 69.5542C17.875 67.6917 20.425 65.975 22.1167 64.9188C22.5021 64.6875 23.0667 64.3479 23.7542 63.9354C23.8688 63.8708 23.9333 63.8354 23.9333 63.8354L23.9313 63.8313C24.0646 63.7521 24.2 63.6708 24.3396 63.5854C25.5208 67.9375 24.3771 71.7688 21.6042 74.7917ZM40.8438 61.7146C39.925 63.9563 38 69.6938 36.8271 69.3854C35.8208 69.1208 35.2083 64.7604 36.6271 60.4688C37.3396 58.3083 38.8646 55.7271 39.7604 54.725C41.2021 53.1125 42.7896 52.5854 43.175 53.2396C43.6646 54.0729 41.4208 60.3083 40.8438 61.7146ZM56.7375 69.2979C56.3479 69.5021 55.9896 69.6292 55.825 69.5313C55.7021 69.4583 55.9854 69.1896 55.9854 69.1896C55.9854 69.1896 57.9729 67.05 58.7563 66.0771C59.2125 65.5104 59.7396 64.8375 60.3146 64.0875C60.3188 64.1625 60.3208 64.2375 60.3208 64.3104C60.3167 66.8729 57.8417 68.6021 56.7375 69.2979ZM68.9813 66.5063C68.6896 66.3 68.7396 65.6313 69.6958 63.5458C70.0708 62.7271 70.9292 61.35 72.4167 60.0333C72.5896 60.575 72.6937 61.0938 72.6917 61.5771C72.6729 64.8021 70.3729 66.0063 68.9813 66.5063Z" fill="#F06292"/>
</svg>
