<svg width="100" height="100" viewBox="0 0 100 100" fill="none" xmlns="http://www.w3.org/2000/svg">
<path d="M50 90.625C27.6 90.625 9.375 72.4016 9.375 50C9.375 27.5984 27.6 9.375 50 9.375C72.4 9.375 90.625 27.5984 90.625 50C90.625 72.4016 72.4 90.625 50 90.625ZM50 12.5C29.3234 12.5 12.5 29.3234 12.5 50C12.5 70.6766 29.3234 87.5 50 87.5C70.6766 87.5 87.5 70.6766 87.5 50C87.5 29.3234 70.6766 12.5 50 12.5Z" fill="url(#paint0_linear_14_150)"/>
<path d="M18.75 49.9984C18.75 62.3672 25.9375 73.0578 36.3625 78.1219L21.4563 37.2812C19.7219 41.1672 18.75 45.4688 18.75 49.9984ZM71.0969 48.4234C71.0969 44.5609 69.7094 41.8859 68.5203 39.8047C66.9359 37.2297 65.45 35.05 65.45 32.475C65.45 29.6031 67.6281 26.9297 70.6984 26.9297C70.8375 26.9297 70.9688 26.9469 71.1031 26.9547C65.5438 21.8609 58.1359 18.75 50 18.75C39.0812 18.75 29.4781 24.3516 23.8891 32.8344C24.6234 32.8578 25.3141 32.8719 25.9 32.8719C29.1672 32.8719 34.2281 32.475 34.2281 32.475C35.9125 32.3766 36.1109 34.8516 34.4281 35.05C34.4281 35.05 32.7344 35.2484 30.8516 35.3469L42.2313 69.1969L49.0703 48.6875L44.2016 35.3484C42.5172 35.25 40.9234 35.0516 40.9234 35.0516C39.2391 34.9516 39.4359 32.3781 41.1219 32.4766C41.1219 32.4766 46.2812 32.8734 49.3516 32.8734C52.6187 32.8734 57.6813 32.4766 57.6813 32.4766C59.3656 32.3781 59.5641 34.8531 57.8797 35.0516C57.8797 35.0516 56.1844 35.25 54.3031 35.3484L65.5969 68.9406L68.8203 58.725C70.2562 54.2594 71.0969 51.0969 71.0969 48.4234ZM50.5484 52.7328L41.1719 79.9766C43.9719 80.8 46.9328 81.25 50 81.25C53.6391 81.25 57.1297 80.6219 60.3781 79.4781C60.2937 79.3438 60.2172 79.2031 60.1531 79.0469L50.5484 52.7328ZM77.4234 35.0078C77.5578 36.0031 77.6328 37.0703 77.6328 38.2203C77.6328 41.3906 77.0391 44.9547 75.2563 49.4125L65.7125 77.0078C75.0016 71.5922 81.25 61.5281 81.25 49.9984C81.25 44.5656 79.8609 39.4578 77.4234 35.0078Z" fill="url(#paint1_linear_14_150)"/>
<defs>
<linearGradient id="paint0_linear_14_150" x1="50" y1="8.59375" x2="50" y2="92.5797" gradientUnits="userSpaceOnUse">
<stop stop-color="#1A6DFF"/>
<stop offset="1" stop-color="#C822FF"/>
</linearGradient>
<linearGradient id="paint1_linear_14_150" x1="50" y1="12.5328" x2="50" y2="84.7328" gradientUnits="userSpaceOnUse">
<stop stop-color="#6DC7FF"/>
<stop offset="1" stop-color="#E6ABFF"/>
</linearGradient>
</defs>
</svg>
