<svg width="25" height="26" viewBox="0 0 25 26" fill="none" xmlns="http://www.w3.org/2000/svg">
<path d="M21.875 20.2417C21.875 21.6875 20.7094 22.8591 19.2708 22.8591H5.72917C4.29115 22.8591 3.125 21.6875 3.125 20.2417V6.6312C3.125 5.18534 4.29115 4.01379 5.72917 4.01379H19.2708C20.7094 4.01379 21.875 5.18534 21.875 6.6312V20.2417Z" fill="#0288D1"/>
<path d="M6.25 10.8191H8.85417V19.7182H6.25V10.8191ZM7.54427 9.7721H7.52969C6.7526 9.7721 6.25 9.18999 6.25 8.46287C6.25 7.72005 6.76823 7.15469 7.55937 7.15469C8.35156 7.15469 8.83958 7.72005 8.85417 8.46287C8.85417 9.18946 8.35156 9.7721 7.54427 9.7721ZM18.75 19.7182H16.1458V14.9551C16.1458 13.8045 15.5078 13.0192 14.4833 13.0192C13.7016 13.0192 13.2786 13.549 13.0734 14.061C12.9984 14.2442 13.0208 14.7509 13.0208 15.0069V19.7182H10.4167V10.8191H13.0208V12.1885C13.3964 11.6043 13.9844 10.8191 15.4885 10.8191C17.3521 10.8191 18.7495 11.9969 18.7495 14.6269L18.75 19.7182Z" fill="white"/>
</svg>
