<svg width="100" height="100" viewBox="0 0 100 100" fill="none" xmlns="http://www.w3.org/2000/svg">
<path d="M64.8438 37.6437C57.5203 37.6437 51.5625 43.6016 51.5625 50.925C51.5625 58.2484 57.5203 64.2062 64.8438 64.2062C72.1672 64.2062 78.125 58.2484 78.125 50.925C78.125 43.6016 72.1672 37.6437 64.8438 37.6437ZM64.8438 61.0812C59.2437 61.0812 54.6875 56.525 54.6875 50.925C54.6875 45.325 59.2437 40.7687 64.8438 40.7687C70.4438 40.7687 75 45.325 75 50.925C75 56.525 70.4438 61.0812 64.8438 61.0812Z" fill="url(#paint0_linear_14_153)"/>
<path d="M63.375 37.6437C71.5094 37.6437 78.125 31.0047 78.125 22.8453C78.125 14.6344 71.5078 7.95624 63.375 7.95624H51.3828H48.6172H35.0625C26.9281 7.95624 20.3125 14.5937 20.3125 22.7531C20.3125 28.5969 23.6734 33.6516 28.5391 36.0875C23.6703 38.5172 20.3125 43.5266 20.3125 49.3156C20.3125 55.2047 23.7453 60.2922 28.7 62.7062C23.6922 65.2391 20.3125 70.5031 20.3125 76.7437C20.3125 85.3391 27.3062 92.3328 35.9016 92.3328C44.5359 92.3312 51.5625 85.3047 51.5625 76.6687V64.2062V61.0812V50.925V37.6437H63.375ZM23.4375 22.7531C23.4375 16.3172 28.6531 11.0812 35.0625 11.0812H48.4375V34.5187H35.1484H35.0625C28.6531 34.5187 23.4375 29.2406 23.4375 22.7531ZM48.4375 76.6687C48.4375 83.5828 42.8141 89.2062 35.9016 89.2062C29.0297 89.2062 23.4375 83.6156 23.4375 76.7422C23.4375 69.7125 28.7422 64.2062 35.5141 64.2062H48.4375V76.6687ZM48.4375 61.0812H35.5141H35.1484C28.6922 61.0812 23.4375 55.8031 23.4375 49.3156C23.4375 42.8797 28.6906 37.6437 35.1484 37.6437H48.4375V61.0812ZM51.5625 34.5187V11.0812H63.375C69.7859 11.0812 75 16.3594 75 22.8453C75 29.2812 69.7844 34.5187 63.375 34.5187H51.5625Z" fill="url(#paint1_linear_14_153)"/>
<path d="M69.8156 45.9531L59.8718 55.8969C62.6171 58.6422 67.0703 58.6422 69.8156 55.8969C72.5609 53.1516 72.5609 48.7 69.8156 45.9531Z" fill="url(#paint2_linear_14_153)"/>
<path d="M26.5625 76.8031C26.5625 81.8875 30.7484 86.0094 35.9125 86.0094C41.0766 86.0094 45.3125 81.8391 45.3125 76.7547L26.5625 76.8031Z" fill="url(#paint3_linear_14_153)"/>
<path d="M35.1563 14.2062C30.6735 14.2062 26.9922 17.6391 26.5969 22.0187H45.3672V14.2062H35.1563Z" fill="url(#paint4_linear_14_153)"/>
<defs>
<linearGradient id="paint0_linear_14_153" x1="64.8438" y1="37.6437" x2="64.8438" y2="64.2062" gradientUnits="userSpaceOnUse">
<stop stop-color="#1A6DFF"/>
<stop offset="1" stop-color="#C822FF"/>
</linearGradient>
<linearGradient id="paint1_linear_14_153" x1="49.2188" y1="7.95624" x2="49.2188" y2="92.3312" gradientUnits="userSpaceOnUse">
<stop stop-color="#1A6DFF"/>
<stop offset="1" stop-color="#C822FF"/>
</linearGradient>
<linearGradient id="paint2_linear_14_153" x1="65.8734" y1="45.9531" x2="65.8734" y2="57.9562" gradientUnits="userSpaceOnUse">
<stop stop-color="#6DC7FF"/>
<stop offset="1" stop-color="#E6ABFF"/>
</linearGradient>
<linearGradient id="paint3_linear_14_153" x1="35.9375" y1="76.7547" x2="35.9375" y2="86.0094" gradientUnits="userSpaceOnUse">
<stop stop-color="#6DC7FF"/>
<stop offset="1" stop-color="#E6ABFF"/>
</linearGradient>
<linearGradient id="paint4_linear_14_153" x1="35.9829" y1="14.2062" x2="35.9829" y2="22.0187" gradientUnits="userSpaceOnUse">
<stop stop-color="#6DC7FF"/>
<stop offset="1" stop-color="#E6ABFF"/>
</linearGradient>
</defs>
</svg>
