<svg width="100" height="100" viewBox="0 0 100 100" fill="none" xmlns="http://www.w3.org/2000/svg">
<path d="M49.9999 70.8333C23.1249 70.8333 2.08325 61.6667 2.08325 50C2.08325 38.3333 23.1249 29.1667 49.9999 29.1667C76.8749 29.1667 97.9166 38.3333 97.9166 50C97.9166 61.6667 76.8749 70.8333 49.9999 70.8333ZM49.9999 33.3333C23.7499 33.3333 6.24992 41.875 6.24992 50C6.24992 58.125 23.7499 66.6667 49.9999 66.6667C76.2499 66.6667 93.7499 58.125 93.7499 50C93.7499 41.875 76.2499 33.3333 49.9999 33.3333Z" fill="#80DEEA"/>
<path d="M31.4583 92.9167C29.375 92.9167 27.7083 92.5 26.0416 91.4584C15.8333 85.625 18.5416 62.9167 31.875 39.5834C38.125 28.75 45.8333 19.5834 53.3333 13.75C61.4583 7.50002 68.75 5.62502 73.75 8.54169C78.9583 11.4584 80.8333 18.75 79.5833 28.9584C78.3333 38.5417 74.1666 49.7917 67.9166 60.625C61.6666 71.4584 53.9583 80.625 46.4583 86.4584C41.0416 90.625 35.8333 92.9167 31.4583 92.9167ZM68.5416 11.25C65.2083 11.25 60.8333 13.125 56.0416 16.875C48.9583 22.5 41.6666 31.25 35.625 41.6667C22.5 64.375 21.25 83.9584 28.125 87.9167C31.6666 90 37.5 88.125 43.9583 83.125C51.0416 77.5 58.3333 68.75 64.375 58.3334C70.4166 47.9167 74.375 37.2917 75.625 28.3334C76.6666 20 75.4166 14.1667 71.875 12.0834C70.8333 11.6667 69.7916 11.25 68.5416 11.25Z" fill="#80DEEA"/>
<path d="M68.7501 92.9167C58.3334 92.9167 43.3334 80.2084 32.0834 60.4167C18.5417 37.0834 15.8334 14.375 26.0417 8.54169C36.2501 2.70836 54.5834 16.25 68.1251 39.5834C74.3751 50.4167 78.5417 61.6667 79.7917 71.25C81.2501 81.4584 79.1667 88.5417 73.9584 91.6667C72.2917 92.5 70.6251 92.9167 68.7501 92.9167ZM28.1251 12.0834C21.2501 16.0417 22.5001 35.625 35.6251 58.3334C48.7501 81.0417 65.0001 91.875 71.8751 87.9167C75.4167 85.8334 76.6667 80 75.6251 71.6667C74.3751 62.7084 70.4167 52.0834 64.3751 41.6667C51.2501 18.9584 35.0001 8.12502 28.1251 12.0834Z" fill="#80DEEA"/>
<path d="M50 58.3333C54.6023 58.3333 58.3333 54.6024 58.3333 50C58.3333 45.3976 54.6023 41.6667 50 41.6667C45.3976 41.6667 41.6666 45.3976 41.6666 50C41.6666 54.6024 45.3976 58.3333 50 58.3333Z" fill="#80DEEA"/>
</svg>
