<svg width="100" height="100" viewBox="0 0 100 100" fill="none" xmlns="http://www.w3.org/2000/svg">
<path d="M14.9833 14.95L20.4562 76.9708C20.6833 79.5479 22.4771 81.7208 24.9646 82.4312L47.1375 88.7667C49.0083 89.3021 50.9896 89.3021 52.8604 88.7667L75.0333 82.4312C77.5208 81.7208 79.3146 79.55 79.5417 76.9708L85.0146 14.95C85.2312 12.5125 83.3125 10.4167 80.8667 10.4167H19.1333C16.6875 10.4167 14.7687 12.5125 14.9833 14.95Z" fill="url(#paint0_linear_14_122)"/>
<path d="M50 16.6667V83.125L70.575 77.2458C72.2354 76.7708 73.4312 75.3208 73.5812 73.6021L78.3437 18.9312C78.45 17.7125 77.4917 16.6667 76.2688 16.6667H50Z" fill="#35C1F1"/>
<path d="M68.9583 27.0833H50V35.4167H60.2083L59.5833 43.75H50V52.0833H59.1667L58.5417 61.4583L50 64.375V73.125L66.4583 67.7083L67.9167 43.75L68.9583 27.0833Z" fill="white"/>
<path d="M50 27.0833V35.4167H31.4583L30.8333 27.0833H50ZM40.4167 43.75L40.8333 52.0833H50V43.75H40.4167ZM41.25 56.25H32.9167L33.5417 67.7083L50 73.125V64.375L41.4583 61.4583L41.25 56.25Z" fill="#D6E0E9"/>
<path opacity="0.05" d="M68.9583 27.0833L67.9167 43.75L66.4583 67.7083L50 73.125L33.5417 67.7083L32.9167 56.25H41.25L41.4583 61.4583L50 64.375L58.5417 61.4583L59.1667 52.0833H50H40.8333L40.4167 43.75H50H59.5833L60.2083 35.4167H50H31.4583L30.8333 27.0833H50H68.9583ZM71.175 25H68.9583H50H30.8333H28.5875L28.7563 27.2396L29.3813 35.5729L29.525 37.5H31.4583H50H57.9625L57.65 41.6667H50H40.4167H38.2271L38.3354 43.8542L38.7521 52.1875L38.8521 54.1667H32.9167H30.7167L30.8375 56.3625L31.4625 67.8208L31.5396 69.2417L32.8917 69.6875L49.35 75.1042L50 75.3187L50.6521 75.1042L67.1104 69.6875L68.4521 69.2458L68.5375 67.8354L69.9958 43.8771L71.0375 27.2146L71.175 25ZM43.2521 54.1667H50H56.9396L56.5542 59.9354L50 62.1729L43.4833 59.9479L43.3313 56.1667L43.2521 54.1667Z" fill="black"/>
<path opacity="0.07" d="M68.9583 27.0833L67.9167 43.75L66.4583 67.7083L50 73.125L33.5417 67.7083L32.9167 56.25H41.25L41.4583 61.4583L50 64.375L58.5417 61.4583L59.1667 52.0833H50H40.8333L40.4167 43.75H50H59.5833L60.2083 35.4167H50H31.4583L30.8333 27.0833H50H68.9583ZM70.0667 26.0417H68.9583H50H30.8333H29.7104L29.7938 27.1604L30.4188 35.4937L30.4917 36.4583H31.4583H50H59.0854L58.6167 42.7083H50H40.4167H39.3208L39.375 43.8021L39.7917 52.1354L39.8417 53.125H40.8333H50H58.0542L57.55 60.6958L50 63.275L42.4708 60.7042L42.2917 56.2083L42.25 55.2083H41.25H32.9167H31.8167L31.8771 56.3062L32.5021 67.7646L32.5417 68.475L33.2167 68.6979L49.675 74.1146L50 74.2208L50.325 74.1146L66.7833 68.6979L67.4542 68.4771L67.4979 67.7708L68.9562 43.8125L69.9979 27.1479L70.0667 26.0417Z" fill="black"/>
<defs>
<linearGradient id="paint0_linear_14_122" x1="34.0208" y1="-5.72501" x2="67.2771" y2="85.6437" gradientUnits="userSpaceOnUse">
<stop stop-color="#2AA4F4"/>
<stop offset="1" stop-color="#007AD9"/>
</linearGradient>
</defs>
</svg>
