<svg width="25" height="26" viewBox="0 0 25 26" fill="none" xmlns="http://www.w3.org/2000/svg">
<path opacity="0.35" d="M13 24.9949C19.0751 24.9949 24 20.045 24 13.939C24 7.83299 19.0751 2.88309 13 2.88309C6.92487 2.88309 2 7.83299 2 13.939C2 20.045 6.92487 24.9949 13 24.9949Z" fill="black"/>
<path d="M12.5 24.4924C18.5751 24.4924 23.5 19.5425 23.5 13.4365C23.5 7.33045 18.5751 2.38055 12.5 2.38055C6.42487 2.38055 1.5 7.33045 1.5 13.4365C1.5 19.5425 6.42487 24.4924 12.5 24.4924Z" fill="#F2F2F2"/>
<path d="M12.5 4.01379C7.32225 4.01379 3.125 8.23238 3.125 13.4364C3.125 18.6405 7.32225 22.8591 12.5 22.8591C17.6777 22.8591 21.875 18.6405 21.875 13.4364C21.875 8.23238 17.6777 4.01379 12.5 4.01379Z" fill="#707CC0"/>
<path d="M15.0403 21.9636C15.0403 21.6816 15.0508 20.7542 15.0508 19.6044C15.0508 18.8023 14.777 18.2774 14.4698 18.0118C16.3758 17.799 18.3763 17.0721 18.3763 13.7684C18.3763 12.8296 18.0453 12.062 17.4968 11.4607C17.5848 11.2431 17.8785 10.3687 17.4115 9.18494C17.4115 9.18494 16.6945 8.95378 15.061 10.0664C14.3775 9.87569 13.6455 9.7802 12.919 9.77694C12.1915 9.7802 11.4595 9.87569 10.777 10.0664C9.14253 8.95352 8.42428 9.18494 8.42428 9.18494C7.95878 10.3689 8.25253 11.2434 8.34028 11.4607C7.79303 12.062 7.45953 12.8296 7.45953 13.7684C7.45953 17.0638 9.45703 17.8015 11.3568 18.0186C11.1123 18.2337 10.8913 18.6126 10.8135 19.1682C10.326 19.3883 9.08678 19.7677 8.32353 18.4536C8.32353 18.4536 7.87153 17.6281 7.01303 17.5673C7.01303 17.5673 6.17753 17.5565 6.95428 18.09C6.95428 18.09 7.51528 18.3546 7.90428 19.3478C7.90428 19.3478 8.40653 21.0203 10.7865 20.5007C10.7908 21.2183 10.798 21.759 10.798 21.9633C10.798 22.0601 10.7675 22.1623 10.7023 22.2435C11.4863 22.5556 12.325 22.7335 13.2018 22.7335C13.947 22.7335 14.665 22.6056 15.3458 22.3774C15.1255 22.3239 15.0403 22.1337 15.0403 21.9636Z" fill="#F2F2F2"/>
<path d="M12.5 23.236C7.12375 23.236 2.75 18.84 2.75 13.4365C2.75 8.03288 7.12375 3.6369 12.5 3.6369C17.8762 3.6369 22.25 8.03288 22.25 13.4365C22.25 18.84 17.8762 23.236 12.5 23.236ZM12.5 4.39071C7.53725 4.39071 3.5 8.44848 3.5 13.4365C3.5 18.4244 7.53725 22.4822 12.5 22.4822C17.4627 22.4822 21.5 18.4244 21.5 13.4365C21.5 8.44848 17.4627 4.39071 12.5 4.39071Z" fill="#40396E"/>
</svg>
