<svg width="100" height="100" viewBox="0 0 100 100" fill="none" xmlns="http://www.w3.org/2000/svg">
<path d="M23.2344 82.8125C21.75 82.8125 20.7359 82.0859 20.1469 81.4781C19.2109 80.5109 18.7016 79.1938 18.7469 77.8625C18.9188 72.9656 18.7391 65.8672 16.9016 59.9016C15.5344 55.5203 13.0484 52.0969 9.84845 50C13.0484 47.9047 15.5344 44.4859 16.8969 40.1156C18.7406 34.1328 18.9203 27.0344 18.7484 22.1312C18.7047 20.8062 19.2141 19.4891 20.1485 18.5219C20.736 17.9141 21.75 17.1875 23.2344 17.1875H76.7656C78.25 17.1875 79.2641 17.9141 79.8531 18.5219C80.7891 19.4891 81.2984 20.8063 81.2531 22.1375C81.0813 27.0344 81.2609 34.1328 83.0984 40.0984C84.4656 44.4797 86.9531 47.9031 90.1531 50C86.9531 52.0953 84.4672 55.5141 83.1047 59.8844C81.2609 65.8672 81.0813 72.9656 81.2531 77.8687C81.2969 79.1937 80.7875 80.5109 79.8531 81.4781C79.2641 82.0859 78.25 82.8125 76.7656 82.8125H23.2344ZM57.3641 48.6484C61.5156 47.9797 64.7766 44.1313 64.7766 39.8203C64.7766 33.6797 59.925 29.6875 52.5438 29.6875H35.9375V70.2969H52.6391C61.4828 70.2969 66.8109 65.9703 66.8109 58.8125C66.8109 53.4047 63.0094 49.5078 57.3625 48.8875L57.3641 48.6484ZM50.986 34.8406C55.6625 34.8406 58.3188 36.925 58.3188 40.6938C58.3188 44.7188 55.2328 46.9609 49.6344 46.9609H42.1875V34.8406H50.986ZM42.1875 65.1438V51.7812H50.9375C57.0453 51.7812 60.2109 54.0234 60.2109 58.4141C60.2109 62.8047 57.125 65.1422 51.3031 65.1422L42.1875 65.1438Z" fill="url(#paint0_linear_14_138)"/>
<defs>
<linearGradient id="paint0_linear_14_138" x1="50" y1="82.8125" x2="50" y2="17.1875" gradientUnits="userSpaceOnUse">
<stop stop-color="#E6ABFF"/>
<stop offset="1" stop-color="#6DC7FF"/>
</linearGradient>
</defs>
</svg>
