<svg width="100" height="100" viewBox="0 0 100 100" fill="none" xmlns="http://www.w3.org/2000/svg">
<path d="M7.83594 11.3187L16.3766 82.0156C16.6797 84.5203 18.4656 86.6016 20.9078 87.2953L48.3063 95.0719C49.4141 95.3859 50.5875 95.3938 51.7 95.0922L80.5156 87.2859C83.0375 86.6031 84.8734 84.4469 85.1328 81.8625L92.2406 11.2578C92.4266 9.4125 90.9688 7.8125 89.1016 7.8125H10.9672C9.07656 7.8125 7.60937 9.45469 7.83594 11.3187Z" fill="#F6D397"/>
<path d="M81.8078 15.625H50V87.5C50.4656 87.5031 50.9297 87.4391 51.3828 87.3078L74.8234 80.4781C76.875 79.8812 78.3687 77.9938 78.5797 75.7328L84.3625 18.6406C84.5125 17.025 83.3266 15.625 81.8078 15.625Z" fill="#F9E3AE"/>
<path d="M50.0391 96.875C49.3125 96.875 48.5859 96.775 47.8797 96.5766L20.4797 88.7984C17.4234 87.9297 15.2031 85.3406 14.825 82.2031L6.28281 11.5062C6.12187 10.1781 6.54062 8.84219 7.42812 7.83906C8.325 6.82969 9.61406 6.25 10.9672 6.25H89.1031C90.4375 6.25 91.7156 6.81719 92.6094 7.80469C93.4953 8.78594 93.9297 10.1016 93.7969 11.4156L86.6875 82.0188C86.3656 85.2234 84.05 87.9469 80.925 88.7937L52.1094 96.6C51.4312 96.7828 50.7359 96.875 50.0391 96.875ZM10.9672 9.375C10.5016 9.375 10.0766 9.56562 9.76875 9.9125C9.46875 10.2516 9.33281 10.6844 9.3875 11.1312L17.9297 81.8281C18.1578 83.7125 19.4937 85.2688 21.3359 85.7922L48.7344 93.5687C49.5672 93.8063 50.4578 93.8109 51.2922 93.5828L80.1078 85.7766C81.9906 85.2672 83.3859 83.6297 83.5797 81.7063L90.6875 11.1016C90.7313 10.6578 90.5906 10.2313 90.2922 9.9C89.9844 9.56094 89.5609 9.375 89.1016 9.375H10.9672Z" fill="#8D6C9F"/>
<path d="M89.0625 18.75C88.1984 18.75 87.5 18.05 87.5 17.1875V14.0625C87.5 13.2 88.1984 12.5 89.0625 12.5C89.9266 12.5 90.625 13.2 90.625 14.0625V17.1875C90.625 18.05 89.9266 18.75 89.0625 18.75ZM81.25 18.75C80.3859 18.75 79.6875 18.05 79.6875 17.1875V14.0625C79.6875 13.2 80.3859 12.5 81.25 12.5C82.1141 12.5 82.8125 13.2 82.8125 14.0625V17.1875C82.8125 18.05 82.1141 18.75 81.25 18.75ZM73.4375 18.75C72.5734 18.75 71.875 18.05 71.875 17.1875V14.0625C71.875 13.2 72.5734 12.5 73.4375 12.5C74.3016 12.5 75 13.2 75 14.0625V17.1875C75 18.05 74.3016 18.75 73.4375 18.75ZM65.625 18.75C64.7609 18.75 64.0625 18.05 64.0625 17.1875V14.0625C64.0625 13.2 64.7609 12.5 65.625 12.5C66.4891 12.5 67.1875 13.2 67.1875 14.0625V17.1875C67.1875 18.05 66.4891 18.75 65.625 18.75ZM57.8125 18.75C56.9484 18.75 56.25 18.05 56.25 17.1875V14.0625C56.25 13.2 56.9484 12.5 57.8125 12.5C58.6766 12.5 59.375 13.2 59.375 14.0625V17.1875C59.375 18.05 58.6766 18.75 57.8125 18.75ZM50 18.75C49.1359 18.75 48.4375 18.05 48.4375 17.1875V14.0625C48.4375 13.2 49.1359 12.5 50 12.5C50.8641 12.5 51.5625 13.2 51.5625 14.0625V17.1875C51.5625 18.05 50.8641 18.75 50 18.75ZM42.1875 18.75C41.3234 18.75 40.625 18.05 40.625 17.1875V14.0625C40.625 13.2 41.3234 12.5 42.1875 12.5C43.0516 12.5 43.75 13.2 43.75 14.0625V17.1875C43.75 18.05 43.0516 18.75 42.1875 18.75ZM34.375 18.75C33.5109 18.75 32.8125 18.05 32.8125 17.1875V14.0625C32.8125 13.2 33.5109 12.5 34.375 12.5C35.2391 12.5 35.9375 13.2 35.9375 14.0625V17.1875C35.9375 18.05 35.2391 18.75 34.375 18.75ZM26.5625 18.75C25.6984 18.75 25 18.05 25 17.1875V14.0625C25 13.2 25.6984 12.5 26.5625 12.5C27.4266 12.5 28.125 13.2 28.125 14.0625V17.1875C28.125 18.05 27.4266 18.75 26.5625 18.75ZM18.75 18.75C17.8859 18.75 17.1875 18.05 17.1875 17.1875V14.0625C17.1875 13.2 17.8859 12.5 18.75 12.5C19.6141 12.5 20.3125 13.2 20.3125 14.0625V17.1875C20.3125 18.05 19.6141 18.75 18.75 18.75ZM10.9375 18.75C10.0734 18.75 9.375 18.05 9.375 17.1875V14.0625C9.375 13.2 10.0734 12.5 10.9375 12.5C11.8016 12.5 12.5 13.2 12.5 14.0625V17.1875C12.5 18.05 11.8016 18.75 10.9375 18.75Z" fill="#8D6C9F"/>
<path d="M37.5 29.6875C37.5 42.7078 37.5 55.7297 37.5 68.75C32.8125 67.7078 28.125 66.6672 23.4375 65.625C23.7578 68.75 24.0781 71.875 24.3984 75C31.3703 76.9875 38.3406 78.9734 45.3125 80.9609V29.6875C42.7078 29.6875 40.1047 29.6875 37.5 29.6875Z" fill="#FAEFDE"/>
<path d="M77.8453 37.575L78.525 29.6875C70.5797 29.6875 62.6328 29.6875 54.6875 29.6875C54.6875 41.1453 54.6875 52.6047 54.6875 64.0625C59.3469 62.9859 64.0062 61.9094 68.6656 60.8344L68.1719 68.2297C63.6781 69.4437 59.1828 70.6594 54.6875 71.875C54.6875 75 54.6875 78.125 54.6875 81.25C61.3187 79.3453 67.95 77.4422 74.5812 75.5375L76.6594 51.3797C71.9406 51.9609 67.2203 52.5438 62.5 53.125C62.5 47.9172 62.5 42.7078 62.5 37.5C67.6156 37.525 72.7297 37.55 77.8453 37.575Z" fill="#FAEFDE"/>
<path d="M45.3125 82.5234C45.1688 82.5234 45.025 82.5031 44.8844 82.4641L23.9703 76.5031C23.3547 76.3281 22.9094 75.7953 22.8438 75.1594L21.8828 65.7844C21.8328 65.2844 22.025 64.7906 22.3984 64.4578C22.775 64.1234 23.2844 63.9906 23.7766 64.1L35.9375 66.8016V29.6875C35.9375 28.825 36.6359 28.125 37.5 28.125H45.3125C46.1766 28.125 46.875 28.825 46.875 29.6875V80.9609C46.875 81.45 46.6453 81.9125 46.2547 82.2078C45.9797 82.4156 45.6484 82.5234 45.3125 82.5234ZM25.8453 73.7875L43.75 78.8906V31.25H39.0625V68.75C39.0625 69.2234 38.8469 69.6719 38.4781 69.9688C38.1078 70.2656 37.625 70.3781 37.1609 70.275L25.2125 67.6203L25.8453 73.7875Z" fill="#8D6C9F"/>
<path d="M54.6875 82.8125C54.3516 82.8125 54.0219 82.7047 53.7469 82.4984C53.3547 82.2031 53.125 81.7406 53.125 81.25V71.875C53.125 71.1688 53.5984 70.55 54.2797 70.3672L66.6859 67.0125L66.9656 62.8297L55.0375 65.5844C54.5797 65.6953 54.0891 65.5828 53.7141 65.2859C53.3391 64.9891 53.125 64.5391 53.125 64.0625V29.6875C53.125 28.825 53.8234 28.125 54.6875 28.125H78.5266C78.9641 28.125 79.3828 28.3094 79.6781 28.6312C79.9734 28.9547 80.1203 29.3859 80.0828 29.8219L79.4016 37.7094C79.3328 38.5203 78.5875 39.1875 77.8375 39.1375L64.0625 39.0703V51.3578L76.4687 49.8281C76.9312 49.7719 77.4047 49.9266 77.7438 50.2531C78.0828 50.5797 78.2562 51.0422 78.2156 51.5125L76.1375 75.6703C76.0828 76.3156 75.6344 76.8594 75.0125 77.0375L55.1188 82.7484C54.9781 82.7922 54.8328 82.8125 54.6875 82.8125ZM56.25 73.0719V79.1766L73.1172 74.3328L74.9375 53.1672L62.6906 54.6766C62.2516 54.7297 61.8016 54.5922 61.4656 54.2953C61.1297 53.9984 60.9375 53.5734 60.9375 53.125V37.5C60.9375 37.0844 61.1031 36.6859 61.3984 36.3922C61.6937 36.0984 62.0438 35.9453 62.5078 35.9375L76.4125 36.0063L76.8234 31.25H56.25V62.0984L68.3156 59.3125C68.7953 59.1984 69.3031 59.3234 69.6797 59.6453C70.0563 59.9656 70.2578 60.4453 70.2266 60.9391L69.7328 68.3344C69.6891 69 69.225 69.5641 68.5812 69.7375L56.25 73.0719Z" fill="#8D6C9F"/>
</svg>
